PathFileType	4	(X/Y/Z)	OpenSim_Sub10_EMGStiffKnee_Accel.trc
DataRate	CameraRate	NumFrames	NumMarkers	Units	OrigDataRate	OrigDataStartFrame	OrigNumFrames
100	100	28	8	m	100	1	8371
Frame#	Time	torso_imu_offset_imu	pelvis_imu_offset_imu	tibia_r_imu_offset_imu	femur_r_imu_offset_imu	tibia_l_imu_offset_imu	femur_l_imu_offset_imu	toes_r_imu_offset_imu	toes_l_imu_offset_imu
				X1	Y1	Z1	X2	Y2	Z2	X3	Y3	Z3	X4	Y4	Z4	X5	Y5	Z5	X6	Y6	Z6	X7	Y7	Z7	X8		Y8	Z8	

1	0	8.82054700	-0.18245900	6.96288800	9.44828200	0.79077400	3.10304800	9.82014000	0.91256600	1.32501000	9.70697900	0.14802800	0.95937400	9.81674200	-0.70879300	1.10370800	9.64730300	1.11986800	-1.24119700	4.78944600	-0.18753400	8.77297800	5.11798500	0.37190300	11.11985100
2	0.01000000	8.84613700	-0.20187000	6.91379200	9.42839900	0.84032200	3.08948700	9.84066300	0.87569100	1.28334900	9.72973600	0.12435400	0.95086400	9.75928900	-0.66485600	1.11744700	9.63488800	1.16250800	-1.27281500	4.78878200	-0.18736000	8.77334400	5.14046100	0.36625100	11.12224000
3	0.02000000	8.84208700	-0.25672500	6.93062500	9.45024700	0.81464600	3.09346600	9.82897100	0.87545700	1.30579700	9.73491300	0.12000200	0.91922800	9.74791400	-0.67316300	1.18516900	9.68433800	1.14101100	-1.28383700	4.81534800	-0.19942500	8.75600700	5.11414000	0.35945300	11.09979400
4	0.03000000	8.86658300	-0.22551200	6.93460100	9.47579000	0.83425800	3.07963000	9.82628500	0.84006600	1.30635500	9.73473900	0.12048800	0.92100500	9.75362400	-0.66798700	1.15171300	9.64728100	1.11748500	-1.24351200	4.81697600	-0.17803300	8.74429900	5.11012300	0.37383300	11.17629800
5	0.04000000	8.86605500	-0.24448400	6.91798000	9.45214700	0.83862500	3.08403400	9.81189900	0.80563300	1.32853600	9.69816800	0.07709300	0.94044600	9.73578000	-0.61793300	1.13776600	9.63773700	1.13586100	-1.27132100	4.81451000	-0.19924600	8.75647200	5.11226600	0.37145500	11.12249600
6	0.05000000	8.86519200	-0.24668900	6.91900900	9.45214200	0.83908900	3.08392200	9.84886700	0.78491600	1.29511200	9.70471500	0.11137100	0.93855400	9.78766800	-0.58840900	1.13308700	9.65398700	1.12009200	-1.22225700	4.80819700	-0.17504000	8.79888200	5.11100800	0.37151200	11.12307300
7	0.06000000	8.81391800	-0.26446100	6.93366200	9.43803500	0.83745900	3.14172000	9.84604200	0.74973000	1.29648000	9.70391000	0.09277400	0.92498500	9.77162200	-0.56266000	1.11673200	9.61792000	1.14938500	-1.16677500	4.78348800	-0.17461400	8.79572700	5.11457400	0.38045000	11.09048600
8	0.07000000	8.83702700	-0.25034400	6.95391500	9.45803600	0.84859500	3.10521600	9.83211400	0.76741700	1.28997900	9.73345100	0.10347900	0.91237300	9.79885400	-0.65556600	1.09217800	9.64147600	1.16260700	-1.25478700	4.78688600	-0.21976900	8.76574300	5.10927200	0.37157900	11.12386800
9	0.08000000	8.85851100	-0.25394800	6.99068000	9.47632700	0.83717600	3.07718400	9.85105900	0.81711600	1.30039400	9.70962600	0.10813200	0.90992900	9.72704000	-0.68734400	1.11217200	9.65095000	1.14288800	-1.22877500	4.78544900	-0.18636000	8.77518400	5.13856200	0.39891900	11.13586600
10	0.09000000	8.88374800	-0.23836100	6.97658300	9.45884400	0.84994300	3.10238200	9.85151800	0.86812800	1.27274000	9.76405500	0.15283800	0.93229700	9.74479700	-0.73640600	1.12753100	9.67025100	1.11579000	-1.25613000	4.80689600	-0.20762700	8.79095500	5.15515400	0.36122600	11.12822300
11	0.10000000	8.88524300	-0.23800500	6.94299800	9.46116900	0.87316800	3.09180400	9.83978100	0.86766900	1.29549900	9.76932900	0.14849000	0.90021900	9.75692400	-0.71279300	1.15176300	9.64013300	1.10915300	-1.27322100	4.83447500	-0.16513100	8.77091300	5.12522400	0.34566100	11.13836000
12	0.11000000	8.90726700	-0.25702600	6.96189200	9.45589700	0.86535100	3.06810900	9.84655400	0.86574000	1.35617300	9.75157200	0.16748400	0.87927300	9.74922100	-0.69239500	1.18973000	9.65947400	1.08136100	-1.30074800	4.78384800	-0.18545700	8.77607600	5.12994800	0.36643100	11.12708700
13	0.12000000	8.88384600	-0.23858500	6.94476600	9.45445400	0.84331800	3.07567300	9.82522000	0.83185900	1.31954700	9.72225900	0.17667800	0.91103800	9.73310600	-0.66648600	1.17405400	9.65243700	1.06367200	-1.24494500	4.81057400	-0.19744000	8.75867500	5.13569600	0.39926500	11.13717500
14	0.13000000	8.87868700	-0.25800900	6.99737400	9.43681200	0.85617100	3.10138600	9.81345400	0.83142100	1.34236200	9.73349800	0.14377400	0.95506300	9.77264600	-0.65969200	1.14764600	9.64571200	1.05780700	-1.26903400	4.78136500	-0.20603600	8.78827000	5.10387800	0.36043400	11.10448400
15	0.14000000	8.89745700	-0.29495300	7.03479500	9.43710200	0.85684600	3.10031700	9.83886700	0.81082000	1.33006900	9.69746700	0.11958300	0.99008200	9.76491300	-0.63946400	1.18560400	9.62919700	1.05940400	-1.23966400	4.78616400	-0.19653200	8.75536100	5.12716100	0.35523200	11.10651300
16	0.15000000	8.87094300	-0.36210800	6.99875000	9.43367900	0.81227600	3.11730300	9.82448300	0.77580300	1.35200800	9.72637300	0.11162200	0.96264900	9.75644100	-0.63289800	1.13329200	9.66908500	1.05668900	-1.27783100	4.83648700	-0.17569000	8.75037700	5.13296900	0.38798800	11.11657500
17	0.16000000	8.83622300	-0.31833100	6.79107900	9.45370200	0.82334800	3.08057800	9.82173000	0.74035300	1.35264900	9.72560300	0.09304500	0.94908700	9.74024900	-0.68377800	1.14277800	9.64979300	1.08184200	-1.25239400	4.78317600	-0.18405900	8.77647200	5.16159800	0.40365700	11.10704700
18	0.17000000	8.82648200	-0.30513400	6.94715900	9.45571300	0.84632900	3.07097100	9.84981400	0.75480500	1.34045100	9.74301300	0.07470400	0.97342300	9.71771500	-0.67601800	1.07042100	9.62944300	1.05454700	-1.24189400	4.83118100	-0.18450700	8.78357900	5.13176500	0.38817100	11.11712500
19	0.18000000	8.87512400	-0.25372600	6.97039800	9.45957800	0.83246400	3.10210000	9.84301400	0.75488100	1.28145700	9.77690600	0.04319100	0.89636100	9.73363800	-0.70087900	1.08835000	9.58970600	1.05426900	-1.20518000	4.80964900	-0.19628600	8.75920900	5.12994500	0.37639000	11.09612600
20	0.19000000	8.91670600	-0.27410100	7.06019300	9.42643800	0.78291800	3.10270900	9.82163600	0.73807700	1.35457700	9.73617200	0.08612000	0.88574000	9.72781200	-0.70500600	1.12298400	9.62679000	1.07551400	-1.24711300	4.80663200	-0.18409100	8.78032800	5.11160700	0.41377500	11.10457100
21	0.20000000	8.81658200	-0.30431300	7.05468400	9.46329400	0.81862100	3.13367800	9.83593600	0.77093200	1.33467500	9.70685600	0.09552500	0.91695600	9.79947000	-0.67203600	1.10520900	9.65008800	1.07602200	-1.25513700	4.78022800	-0.20468800	8.78892000	5.09973900	0.37164600	11.12823900
22	0.21000000	8.76833600	-0.36887200	6.98226200	9.45942500	0.83299800	3.10242100	9.87568100	0.78447900	1.30149500	9.73028400	0.09201300	0.92346800	9.77375200	-0.67902900	1.15419800	9.72272500	1.05587200	-1.27380400	4.80811900	-0.16226900	8.76870200	5.12172200	0.35431100	11.10905100
23	0.22000000	8.84582700	-0.33424400	6.92095000	9.46329500	0.81852200	3.13370200	9.85225600	0.78513600	1.34509500	9.75922700	0.08399700	0.89628300	9.76792800	-0.60566500	1.16449700	9.70220900	1.02944100	-1.26372100	4.80125800	-0.19253500	8.81357300	5.14028400	0.33988600	11.14419900
24	0.23000000	8.89733500	-0.29924000	6.89177500	9.47933200	0.78372800	3.11604600	9.87064900	0.78258600	1.38421000	9.78879100	0.09518200	0.88390800	9.77231200	-0.56253400	1.22531200	9.69150600	0.99557600	-1.30646400	4.82742300	-0.17156500	8.80511900	5.14524500	0.36030300	11.13283800
25	0.24000000	8.87136000	-0.24662000	6.94384000	9.46305600	0.81855700	3.13441200	9.81633300	0.71721400	1.33097400	9.75947100	0.10476700	0.91485100	9.76188600	-0.60931800	1.20091300	9.64891000	1.01995800	-1.27358900	4.83038900	-0.18380400	8.78402900	5.12092800	0.36541300	11.13127500
26	0.25000000	8.87451800	-0.26007700	6.89117300	9.48269200	0.82933900	3.09894100	9.82099400	0.73336500	1.36177200	9.71701400	0.09090400	0.85868300	9.71560700	-0.63401700	1.17349600	9.66121400	0.97582600	-1.24378800	4.80355200	-0.17180600	8.80148300	5.14436300	0.36034300	11.13324500
27	0.26000000	8.87989300	-0.27169600	6.80415200	9.43342000	0.81445700	3.11751800	9.83267500	0.73221600	1.34074800	9.71185300	0.11575200	0.90946300	9.73083900	-0.67319100	1.10148200	9.64183600	1.00213200	-1.21843500	4.80647000	-0.18440000	8.78041100	5.15399500	0.39028700	11.08879600
28	0.27000000	8.87902200	-0.23493400	6.83967800	9.41331300	0.86363400	3.10452000	9.81894700	0.75061400	1.33268100	9.71721900	0.11252300	0.87754300	9.73522600	-0.63054500	1.16178800	9.66903100	1.03169000	-1.20739600	4.83626700	-0.20943800	8.74184900	5.15348200	0.39013900	11.08904000
